# xmcd
#
# Track frame offsets:
#	150
#	18601
#	36254
#	50964
#	65096
#	84140
#	97566
#	114065
#	131247
#	149043
#	165791
#	180573
#	196462
#	213414
#	226167
#
# Disc length: 3261 seconds
#
# Revision: 1
# Processed by: cddbd v1.5.2PL0 Copyright (c) Steve Scherf et al.
# Submitted via: audiograbber 1.83.01
#
DISCID=c90cbb0f
DTITLE=Country - CB60160
DYEAR=1998
DGENRE=Karaoke
TTITLE0=I Can't Get Over You
TTITLE1=Love Ain't Like That
TTITLE2=Tore Up From The Floor Up
TTITLE3=Can't Get Enough
TTITLE4=Better Man
TTITLE5=You Still Shake Me
TTITLE6=Meanwhile
TTITLE7=What's The Matter With You Baby
TTITLE8=No More Looking Over My Shoulder
TTITLE9=With You
TTITLE10=Don't Come Cryin' To Me
TTITLE11=Little Goodbyes
TTITLE12=You Won't Ever Be Lonely
TTITLE13=Two Steppin' Texas Blue
TTITLE14=Random Act Of Senseless Kindness
EXTD=
EXTT0=
EXTT1=
EXTT2=
EXTT3=
EXTT4=
EXTT5=
EXTT6=
EXTT7=
EXTT8=
EXTT9=
EXTT10=
EXTT11=
EXTT12=
EXTT13=
EXTT14=
PLAYORDER=
